inDegrees=no
num_controls=7
num_derivatives=13
num_iterations=141
num_multipliers=7
num_parameters=0
num_slacks=7
num_states=26
objective=0.545137
objective_accelerations=0.042030
objective_balance=0.003882
objective_effort=0.041021
objective_height=0.448760
objective_ligament=0.009445
solver_duration=1461.890552
status=Solve_Succeeded
success=true
DataType=double
version=3
OpenSimVersion=4.5
endheader
time	/jointset/ground_pelvis/pelvis_tilt/value	/jointset/ground_pelvis/pelvis_tx/value	/jointset/ground_pelvis/pelvis_ty/value	/jointset/hip_r/hip_flexion_r/value	/jointset/hip_r/hip_adduction_r/value	/jointset/hip_r/hip_rotation_r/value	/jointset/back/lumbar_extension/value	/jointset/patellofemoral_r/patellar_flexion_r/value	/jointset/knee_r/knee_flexion_r/value	/jointset/knee_r/knee_adduction_r/value	/jointset/knee_r/knee_rotation_r/value	/jointset/ankle_r/ankle_angle_r/value	/jointset/subtalar_r/subtalar_angle_r/value	/jointset/ground_pelvis/pelvis_tilt/speed	/jointset/ground_pelvis/pelvis_tx/speed	/jointset/ground_pelvis/pelvis_ty/speed	/jointset/hip_r/hip_flexion_r/speed	/jointset/hip_r/hip_adduction_r/speed	/jointset/hip_r/hip_rotation_r/speed	/jointset/back/lumbar_extension/speed	/jointset/patellofemoral_r/patellar_flexion_r/speed	/jointset/knee_r/knee_flexion_r/speed	/jointset/knee_r/knee_adduction_r/speed	/jointset/knee_r/knee_rotation_r/speed	/jointset/ankle_r/ankle_angle_r/speed	/jointset/subtalar_r/subtalar_angle_r/speed	/forceset/tau_hip_flexion_r	/forceset/tau_hip_adduction_r	/forceset/tau_hip_rotation_r	/forceset/tau_knee_flexion_r	/forceset/tau_ankle_angle_r	/forceset/tau_subtalar_angle_r	/forceset/tau_lumbar_extension	lambda_cid13_p0	lambda_cid14_p0	lambda_cid14_p1	lambda_cid14_p2	lambda_cid14_p3	lambda_cid14_p4	lambda_cid14_p5	/jointset/ground_pelvis/pelvis_tilt/accel	/jointset/ground_pelvis/pelvis_tx/accel	/jointset/ground_pelvis/pelvis_ty/accel	/jointset/hip_r/hip_flexion_r/accel	/jointset/hip_r/hip_adduction_r/accel	/jointset/hip_r/hip_rotation_r/accel	/jointset/back/lumbar_extension/accel	/jointset/patellofemoral_r/patellar_flexion_r/accel	/jointset/knee_r/knee_flexion_r/accel	/jointset/knee_r/knee_adduction_r/accel	/jointset/knee_r/knee_rotation_r/accel	/jointset/ankle_r/ankle_angle_r/accel	/jointset/subtalar_r/subtalar_angle_r/accel	gamma_cid13_p0	gamma_cid14_p0	gamma_cid14_p1	gamma_cid14_p2	gamma_cid14_p3	gamma_cid14_p4	gamma_cid14_p5
1	-0.4066970237066097	-0.04879178543052873	0.7005471844897017	1.480535032070662	-0.2307111811351674	-0.06221653286898243	-0.4363280165443205	1.164972227965338	1.164972227965054	-0.02862906842152839	0.1745292423478888	0.2789414411947232	0.05909375378531902	-0.0006119780222357057	0.002904215642416405	0.0137442051272946	-0.03771346746633258	0.001366548043973443	-0.009803009665036458	-8.558678106851849e-05	-0.04671248206758455	-0.04671248206758365	0.001148283778623124	-6.086209824563898e-06	-0.009737766494355543	-0.0008479674258425005	-0.3456415362983747	0.007755788440715137	0.01216012621658714	-0.3910910001029636	0.05744854807508682	0.003044174199960845	0.3347715765557501	-2.822665999049396	-30.14160787049857	-2.876676024563303	-0.3136786251611623	13.96466593306948	-786.3253153861752	56.082208342654	1.766430459604923	0.2199422262105138	1.47185425612323	-5.352502788281734	0.0681783485276603	-0.734356762561203	-0.01512302511883259	-4.34228585885562	-4.34228585885562	0.361337100154063	0.007999645153871882	-0.9078990860337155	-0.1633135577398562	3.291488887893117e-10	1.104888586579278e-09	7.450532099053126e-09	6.260317901807672e-09	-1.096266363424362e-09	-1.430686757407305e-09	5.798220289980185e-09
1.01	-0.4066155181979369	-0.04875178085029248	0.7007580164100865	1.479891338270901	-0.2306940234029755	-0.0623506622880257	-0.4363289045046666	1.164288333233581	1.164288333233203	-0.0285991883357319	0.1745291705541667	0.2787986595253387	0.05907720857445617	0.01691788395567371	0.005097761931141598	0.02841516487866872	-0.09101556218957527	0.002065003673925616	-0.01701689884410538	-0.0001030706876084163	-0.09005271231244537	-0.09005271231244416	0.004831017907477858	-9.001518974177771e-06	-0.01881914491545774	-0.002461269178150891	-0.3453085612900136	0.007757000537192378	0.01216667124668593	-0.3908444869555939	0.05756827813293459	0.003014976187088502	0.3345057172891864	-2.848983335967349	-30.08091889230679	-2.877475533809114	-0.3149846237445506	13.9056789069451	-785.94737529722	56.05221030975994	1.746984946987926	0.2192194660355765	1.463664060525103	-5.317603068976807	0.07068229188076018	-0.7140091217967827	0.003279116742120509	-4.327828914166416	-4.327828914166364	0.372236240727561	-0.004543943235477972	-0.9083440856720691	-0.1603640688031381	5.109987237932022e-10	2.228289660337773e-09	1.438586376513784e-08	1.117968807961572e-08	-2.946767123322248e-09	-3.298464453013964e-09	1.079411360288302e-08
1.02	-0.4063585698934636	-0.04868980908000257	0.7011153473731611	1.478714915472982	-0.2306698804901536	-0.06255675142410298	-0.4363302992660282	1.163171448738003	1.16317144873753	-0.02853238197435075	0.1745290482424959	0.2785650466986384	0.0590445252291049	0.03447658113774073	0.007297653653147191	0.04304401366525765	-0.1442592670980699	0.002763584169947493	-0.02419495307185556	-0.000186946987600868	-0.1333104348319106	-0.1333104348319088	0.008533538895387799	-1.618979956737765e-05	-0.02790399795750411	-0.00407559432353187	-0.344975586281655	0.00775821263367093	0.01217321627676863	-0.3905979738082252	0.05768800819078304	0.002985778174218462	0.3342398580226205	-2.892242786185537	-30.02908723025353	-2.877170220580409	-0.3195002500842683	13.86038004258033	-785.7086734047137	56.03650489571223	1.772197500436456	0.2212113128665857	1.46343206316619	-5.340824825332128	0.06820332174160242	-0.727189772297454	-0.02840150380922273	-4.325784313776499	-4.32578431377645	0.3652944719651018	0.007145050865153581	-0.9085940102225618	-0.1635182363543761	7.650320423927547e-10	2.308774795287074e-09	2.089268570298107e-08	1.608482391388861e-08	-2.599662122656266e-09	-5.974034746966605e-09	1.538532635975504e-08
1.03	-0.4059260984895067	-0.04860572897561632	0.7016187173604301	1.477006504006484	-0.2306387706740684	-0.06283439773484864	-0.4363322195834709	1.161622405357737	1.161622405357341	-0.02842836915440972	0.1745288471677473	0.2782406193170893	0.0589956825027096	0.05200124136691971	0.009527203917096416	0.05761903338137419	-0.1973971931522485	0.003456982025096368	-0.0313233908626846	-0.0001430433387955567	-0.1764838859266889	-0.1764838859266831	0.01228010404964195	-2.452663858759149e-05	-0.03697673493410811	-0.005693444541784404	-0.3447312386987951	0.007758047932382928	0.01219221380344799	-0.3901928498570724	0.05791430297375273	0.002951220731105013	0.3341739896163778	-2.952768452128197	-29.9372765702155	-2.869793908464855	-0.3278828575856991	13.68862619519104	-785.4515408517794	56.01644348313375	1.740132100152106	0.2251519432966915	1.452892616918165	-5.296401146199828	0.06970300069547387	-0.7040339656727237	0.02889727546277085	-4.310972418636614	-4.31097241863601	0.3810032778288516	-0.004893547796616906	-0.9059027847817552	-0.1609856094128404	1.019801927151447e-09	2.378617930860766e-09	2.739513509257693e-08	2.098981449975808e-08	-2.23013257341309e-09	-8.657847822535027e-09	1.997240972319818e-08
1.04	-0.4053188741200586	-0.04849908835656307	0.7022675086830771	1.474767488349296	-0.2306007678827728	-0.06318300106014185	-0.4363320786692889	1.159642058084261	1.159642058083943	-0.02828655753479066	0.1745285486253069	0.2778256067170937	0.0589306478351614	0.06942717423583629	0.01180975658654848	0.07212828074082896	-0.2503801052359931	0.00414217921200203	-0.0383863559813968	0.0002252993595021861	-0.2195712134737926	-0.2195712134737816	0.01609329883082718	-3.568333804776009e-05	-0.04602104164680994	-0.007313982554123149	-0.3444868911159386	0.007757883231096532	0.01221121133011057	-0.3897877259059206	0.05814059775672327	0.002916663287994341	0.3341081212101321	-3.031023350033006	-29.85429500153466	-2.861223283869964	-0.3395859332353465	13.53003089457746	-785.3334933591193	56.01107196487697	1.752452028383988	0.2318117939671447	1.450277591833835	-5.309822031245319	0.06656318809296051	-0.7140952378740847	0.0364863060893534	-4.308559604241597	-4.30855960424132	0.3786203973513188	0.006581078777162945	-0.9029079574421398	-0.164055795171622	1.39232571921214e-09	1.472215870531649e-09	3.362147097815026e-08	2.585848066649331e-08	2.73336390612926e-10	-1.258884800017433e-08	2.425032954456595e-08
